<svg width="39" height="21" viewBox="0 0 39 21" fill="none" xmlns="http://www.w3.org/2000/svg">
<path d="M0.847559 5.73576C0.380875 5.73576 0 6.11581 0 6.58407V8.36889C0 8.83982 0.381535 9.22056 0.847559 9.22056C1.31359 9.22056 1.69512 8.84051 1.69512 8.36889V6.58407C1.69512 6.11513 1.31425 5.73576 0.847559 5.73576ZM3.50642 17.2912C3.50642 19.482 5.19033 20.8125 7.10991 20.8125C7.87232 20.8125 8.45452 20.6308 8.66703 20.5704V18.7451C8.59375 18.7862 8.03537 19.1059 7.23265 19.1059C6.09466 19.1059 5.36129 18.3013 5.36129 17.2906C5.36129 16.2797 6.127 15.4772 7.23265 15.4772C8.04919 15.4772 8.59841 15.8041 8.66703 15.84V14.0146C8.50665 13.9669 7.91324 13.7713 7.10991 13.7713C5.0319 13.7713 3.50642 15.2609 3.50642 17.2912ZM10.1615 0.1875C9.86974 0.1875 9.61165 0.336069 9.45914 0.561582C9.36739 0.696889 9.31395 0.860054 9.31395 1.03581V10.0656C9.31395 10.2427 9.36739 10.4065 9.45914 10.5418C9.61165 10.768 9.86974 10.9166 10.1615 10.9166C10.4532 10.9166 10.7114 10.768 10.8638 10.5418C10.9556 10.4058 11.0091 10.242 11.0091 10.0656V1.03649C11.0091 0.860721 10.9556 0.697556 10.8638 0.562249C10.7114 0.336735 10.4532 0.1875 10.1615 0.1875ZM24.1265 9.22056C24.5932 9.22056 24.974 8.84051 24.974 8.36889V4.24141C24.974 3.77316 24.5932 3.39242 24.1265 3.39242C23.6598 3.39242 23.2789 3.77316 23.2789 4.24141V8.36957C23.2789 8.84051 23.6598 9.22056 24.1265 9.22056ZM31.8635 13.7713C29.7822 13.7713 28.289 15.3485 28.289 17.2906C28.289 19.2326 29.7815 20.8118 31.8635 20.8118C33.9454 20.8118 35.4398 19.2352 35.4398 17.2906C35.4398 15.3458 33.9447 13.7713 31.8635 13.7713ZM31.8635 19.0807C30.8502 19.0807 30.0984 18.2802 30.0984 17.2912C30.0984 16.3023 30.8508 15.503 31.8635 15.503C32.876 15.503 33.6298 16.3036 33.6298 17.2912C33.6298 18.2788 32.8754 19.0807 31.8635 19.0807ZM11.0137 20.6918H12.7213V13.892H11.0137V20.6918ZM5.50454 9.22056C5.97122 9.22056 6.35209 8.84051 6.35209 8.36889V4.24141C6.35209 3.77316 5.97122 3.39242 5.50454 3.39242C5.03784 3.39242 4.65697 3.77316 4.65697 4.24141V8.36957C4.65697 8.84051 5.03784 9.22056 5.50454 9.22056ZM33.4411 9.22056C33.9078 9.22056 34.2887 8.84051 34.2887 8.36889V4.24141C34.2887 3.77316 33.9078 3.39242 33.4411 3.39242C32.9744 3.39242 32.5935 3.77316 32.5935 4.24141V8.36957C32.5935 8.84051 32.9744 9.22056 33.4411 9.22056ZM28.7841 10.9166C29.0759 10.9166 29.334 10.768 29.4865 10.5418C29.5782 10.4058 29.6317 10.242 29.6317 10.0656V1.03649C29.6317 0.860721 29.5782 0.697556 29.4865 0.562249C29.334 0.336735 29.0759 0.18816 28.7841 0.18816C28.4924 0.18816 28.2342 0.336735 28.0818 0.562249C27.99 0.697556 27.9365 0.860721 27.9365 1.03649V10.0656C27.9365 10.2427 27.99 10.4065 28.0818 10.5418C28.2342 10.768 28.4924 10.9166 28.7841 10.9166ZM38.0981 5.73508C37.6314 5.73508 37.2505 6.11513 37.2505 6.58338V8.36827C37.2505 8.83921 37.6314 9.21988 38.0981 9.21988C38.5647 9.21988 38.9456 8.83982 38.9456 8.36827V6.58338C38.9456 6.11444 38.5641 5.73508 38.0981 5.73508ZM21.3316 17.2906C21.3316 19.4813 23.0155 20.8118 24.9351 20.8118C25.6975 20.8118 26.2797 20.6301 26.4922 20.5697V18.7444C26.419 18.7855 25.8606 19.1052 25.0578 19.1052C23.9199 19.1052 23.1865 18.3007 23.1865 17.2899C23.1865 16.2791 23.9522 15.4765 25.0578 15.4765C25.8744 15.4765 26.4236 15.8035 26.4922 15.8393V14.014C26.3318 13.9662 25.7384 13.7706 24.9351 13.7706C22.8571 13.7706 21.3316 15.2603 21.3316 17.2906ZM19.4761 5.73508C19.4761 5.73508 19.4741 5.73508 19.4735 5.73508C19.4728 5.73508 19.4715 5.73508 19.4709 5.73508C19.0042 5.73508 18.6233 6.11513 18.6233 6.58338V8.36827C18.6233 8.83921 19.0048 9.21988 19.4709 9.21988C19.4715 9.21988 19.4728 9.21988 19.4735 9.21988C19.4741 9.21988 19.4754 9.21988 19.4761 9.21988C19.9428 9.21988 20.3237 8.83982 20.3237 8.36827V6.58338C20.3237 6.11444 19.9421 5.73508 19.4761 5.73508ZM15.6667 8.36889V4.24141C15.6667 3.77316 15.2858 3.39242 14.8191 3.39242C14.3525 3.39242 13.9716 3.77316 13.9716 4.24141V8.36957C13.9716 8.84051 14.3525 9.22125 14.8191 9.22125C15.2858 9.22125 15.6667 8.84051 15.6667 8.36889ZM18.0615 16.5855L17.5902 16.4349C17.309 16.346 16.8074 16.2014 16.8074 15.7876C16.8074 15.4606 17.179 15.2304 17.8635 15.2304C18.4543 15.2304 19.1732 15.4301 19.1982 15.438V13.9868C19.1474 13.9729 18.3652 13.7699 17.5334 13.7699C15.9591 13.7699 15.0119 14.6242 15.0119 15.8957C15.0119 17.0213 15.8046 17.583 16.7558 17.8848C16.8615 17.92 17.0166 17.9684 17.1202 18.0029C17.544 18.1369 17.882 18.3358 17.882 18.6801C17.882 19.0654 17.4912 19.3149 16.6416 19.3149C15.8951 19.3149 15.1796 19.1006 15.029 19.0621V20.6268C15.1128 20.6447 15.9637 20.8125 16.872 20.8125C18.179 20.8125 19.6734 20.2388 19.6734 18.5308C19.6734 17.7025 19.1685 16.9397 18.0602 16.5855H18.0615Z" fill="#050038"/>
</svg>
